<svg width="113" height="36" viewBox="0 0 113 36" fill="none" xmlns="http://www.w3.org/2000/svg">
<path d="M59.3888 8.83654C59.3888 10.104 58.3676 11.1245 57.1001 11.1245C55.8327 11.1245 54.8121 10.104 54.8121 8.83654C54.8121 7.5691 55.7979 6.54854 57.1001 6.54854C58.4035 6.5837 59.3888 7.60462 59.3888 8.83654ZM49.9541 13.4484V14.0118C49.9541 14.0118 48.8632 12.603 46.5397 12.603C42.7029 12.603 39.7102 15.525 39.7102 19.5732C39.7102 23.5865 42.6678 26.5433 46.5397 26.5433C48.8984 26.5433 49.9541 25.1001 49.9541 25.1001V25.6983C49.9541 25.98 50.1658 26.1906 50.4472 26.1906H53.2982V12.9539H50.4472C50.1658 12.955 49.9541 13.2019 49.9541 13.4484ZM49.9541 21.9318C49.4266 22.7066 48.3702 23.3755 47.1031 23.3755C44.8503 23.3755 43.1249 21.9674 43.1249 19.5732C43.1249 17.1793 44.8503 15.7712 47.1031 15.7712C48.3354 15.7712 49.4618 16.4753 49.9541 17.2145V21.9318ZM55.4107 12.955H58.7899V26.1917H55.4107V12.955ZM105.892 12.6026C103.568 12.6026 102.477 14.0114 102.477 14.0114V6.5837H99.0975V26.1917H101.949C102.231 26.1917 102.442 25.9452 102.442 25.6986V25.1004C102.442 25.1004 103.533 26.5437 105.856 26.5437C109.693 26.5437 112.685 23.5875 112.685 19.5742C112.685 15.5609 109.693 12.6026 105.892 12.6026ZM105.328 23.34C104.026 23.34 103.005 22.6718 102.477 21.8967V17.1793C103.005 16.4753 104.131 15.736 105.328 15.736C107.581 15.736 109.306 17.1441 109.306 19.538C109.306 21.9318 107.582 23.34 105.328 23.34ZM97.3377 18.3416V26.2269H93.9578V18.7284C93.9578 16.5463 93.2537 15.6657 91.354 15.6657C90.3334 15.6657 89.277 16.1939 88.607 16.9687V26.192H85.2285V12.9554H87.903C88.1847 12.9554 88.396 13.2019 88.396 13.4484V14.0118C89.3818 12.9905 90.684 12.603 91.9863 12.603C93.4651 12.603 94.6973 13.026 95.6831 13.8708C96.8795 14.8565 97.3377 16.1236 97.3377 18.3416ZM77.025 12.6026C74.7022 12.6026 73.6106 14.0114 73.6106 14.0114V6.5837H70.2313V26.1917H73.0824C73.3641 26.1917 73.5754 25.9452 73.5754 25.6986V25.1004C73.5754 25.1004 74.667 26.5437 76.9898 26.5437C80.8273 26.5437 83.8193 23.5875 83.8193 19.5742C83.8545 15.5606 80.8625 12.6026 77.025 12.6026ZM76.4616 23.34C75.1593 23.34 74.1388 22.6718 73.6106 21.8967V17.1793C74.1388 16.4753 75.2652 15.736 76.4616 15.736C78.7151 15.736 80.4397 17.1441 80.4397 19.538C80.4397 21.9318 78.7151 23.34 76.4616 23.34ZM67.3093 12.6026C68.3298 12.6026 68.858 12.7792 68.858 12.7792V15.9119C68.858 15.9119 66.0418 14.9613 64.2821 16.9683V26.2265H60.9021V12.955H63.7538C64.0355 12.955 64.2462 13.2015 64.2462 13.448V14.0114C64.8806 13.2719 66.2535 12.6026 67.3093 12.6026ZM32.2125 24.9946C32.0366 24.5722 31.8605 24.1147 31.6846 23.7271C31.4026 23.0938 31.1209 22.4949 30.8751 21.9318L30.8399 21.8967C28.4105 16.6159 25.806 11.2656 23.0598 5.98551L22.9543 5.7738C22.6654 5.22605 22.384 4.67446 22.1099 4.11917C21.7575 3.4851 21.4059 2.81691 20.8425 2.18285C19.7161 0.77474 18.0966 0 16.372 0C14.6115 0 13.0276 0.774744 11.8663 2.11216C11.3381 2.74553 10.9506 3.41442 10.5989 4.04849C10.3242 4.60343 10.0427 5.15501 9.75453 5.70311L9.64868 5.91482C6.93797 11.1949 4.29794 16.5456 1.86892 21.826L1.83341 21.896C1.58724 22.4601 1.30519 23.0583 1.0235 23.6913C0.847664 24.0788 0.671827 24.5012 0.495989 24.9587C0.038109 26.261 -0.102919 27.4932 0.0736213 28.761C0.460815 31.4014 2.2206 33.6184 4.64996 34.6048C5.56537 34.9923 6.51595 35.1682 7.50134 35.1682C7.78303 35.1682 8.13472 35.133 8.41676 35.0975C9.5787 34.9568 10.7754 34.57 11.9374 33.9011C13.3806 33.0912 14.7536 31.93 16.3024 30.2402C17.8511 31.93 19.2592 33.0912 20.6673 33.9011C21.8296 34.57 23.026 34.9568 24.1876 35.0975C24.4693 35.1334 24.8217 35.1682 25.1034 35.1682C26.0891 35.1682 27.0745 34.9923 27.9544 34.6048C30.4189 33.6184 32.1435 31.3662 32.5311 28.761C32.8107 27.5291 32.67 26.2975 32.2125 24.9946ZM16.3365 26.825C14.4353 24.4312 13.203 22.1784 12.781 20.2779C12.6052 19.468 12.5697 18.764 12.6755 18.1302C12.7455 17.5669 12.9572 17.0738 13.2389 16.6514C13.9078 15.7016 15.0342 15.1027 16.3368 15.1027C17.6398 15.1027 18.8014 15.6661 19.4351 16.6514C19.7168 17.0738 19.9278 17.5672 19.9988 18.1302C20.104 18.7643 20.0688 19.5032 19.893 20.2779C19.4692 22.1432 18.2369 24.3964 16.3365 26.825ZM30.3817 28.4797C30.1355 30.3102 28.9032 31.8948 27.1786 32.5988C26.3339 32.9505 25.4181 33.0564 24.5034 32.9505C23.6235 32.8447 22.7429 32.563 21.8282 32.0355C20.5608 31.3307 19.2937 30.2402 17.8149 28.6203C20.1381 25.7693 21.5462 23.1638 22.0744 20.841C22.3209 19.7494 22.3564 18.764 22.2502 17.8482C22.1099 16.9683 21.7927 16.1584 21.3 15.4543C20.2081 13.8697 18.3772 12.955 16.3361 12.955C14.295 12.955 12.4642 13.9056 11.3729 15.4543C10.8802 16.1584 10.563 16.9683 10.4224 17.8482C10.2817 18.764 10.3165 19.7845 10.5982 20.841C11.1261 23.1638 12.5693 25.8041 14.8573 28.6555C13.4141 30.275 12.1114 31.3666 10.844 32.0706C9.9286 32.5989 9.04907 32.8805 8.16918 32.9857C7.21896 33.0915 6.30319 32.9505 5.49364 32.634C3.76903 31.93 2.53676 30.3453 2.29058 28.5148C2.18508 27.635 2.25507 26.7551 2.60744 25.7693C2.71259 25.4169 2.88913 25.0653 3.06497 24.6429C3.31149 24.0795 3.59248 23.4806 3.87453 22.8824L3.91005 22.8124C6.33872 17.5669 8.94357 12.2161 11.6543 7.00642L11.7598 6.79471C12.0418 6.2672 12.3235 5.70382 12.6049 5.1756C12.8865 4.61222 13.203 4.084 13.5906 3.62612C14.3298 2.7821 15.3152 2.32387 16.4068 2.32387C17.4984 2.32387 18.4838 2.7821 19.223 3.62612C19.6106 4.08505 19.9271 4.61327 20.2088 5.1756C20.4908 5.70382 20.7725 6.2672 21.0535 6.79471L21.1593 7.00642C23.8287 12.2378 26.399 17.5191 28.8687 22.8476V22.8828C29.1508 23.4469 29.397 24.0799 29.6787 24.644C29.8545 25.0656 30.0307 25.4173 30.1362 25.7697C30.4172 26.684 30.5227 27.5646 30.3817 28.4797Z" fill="#706F6F"/>
</svg>
