<svg width="30" height="18" viewBox="0 0 30 18" fill="none" xmlns="http://www.w3.org/2000/svg">
<g filter="url(#filter0_d_160_43)">
<path d="M4.37015 1.53485L0.0453749 16.5846C-0.128675 17.1934 0.215642 17.6863 0.821034 17.6863H2.19452C1.97885 17.3017 1.92209 16.8348 2.05831 16.3606L6.37929 1.31078C6.39821 1.23983 6.42848 1.16887 6.45875 1.10165H4.92257C4.6842 1.10165 4.43825 1.29584 4.37015 1.53485Z" fill="#2D2E83"/>
<path d="M7.1777 1.53485L2.85293 16.5846C2.67888 17.1934 3.0232 17.6863 3.62859 17.6863H5.00207C4.7864 17.3017 4.72965 16.8348 4.86586 16.3606L9.18685 1.31078C9.20577 1.23983 9.23604 1.16887 9.26631 1.10165H7.73012C7.49175 1.10165 7.24581 1.29584 7.1777 1.53485Z" fill="#1D71B8"/>
<path d="M19.5996 0.197916C19.312 -0.0560261 18.8391 -0.0672294 18.4002 0.171775L12.823 3.00995C12.7322 3.05476 12.6527 2.99875 12.6792 2.90912L13.0916 1.54231C13.1635 1.29958 13.0273 1.10165 12.7889 1.10165H10.5376C10.2992 1.10165 10.0533 1.29584 9.9852 1.53485L5.66043 16.5846C5.48638 17.1933 5.83069 17.6863 6.43609 17.6863H10.8441C11.4457 17.6863 12.0776 17.1971 12.2516 16.5884L13.7424 11.3938C13.9165 10.7851 14.5483 10.2921 15.15 10.2921H17.0645C17.6661 10.2921 18.0142 10.7851 17.8402 11.3938L16.3494 16.5884C16.1753 17.1971 16.5197 17.69 17.125 17.69H21.5331C22.1347 17.69 22.7666 17.2008 22.9406 16.5921L25.8692 6.39335C25.9524 6.10207 25.9184 5.82198 25.7746 5.61659L19.5996 0.197916Z" fill="#009FE3"/>
</g>
<defs>
<filter id="filter0_d_160_43" x="-3.99976" y="-0.000274658" width="33.9136" height="25.6903" filterUnits="userSpaceOnUse" color-interpolation-filters="sRGB">
<feFlood flood-opacity="0" result="BackgroundImageFix"/>
<feColorMatrix in="SourceAlpha" type="matrix" values="0 0 0 0 0 0 0 0 0 0 0 0 0 0 0 0 0 0 127 0" result="hardAlpha"/>
<feOffset dy="4"/>
<feGaussianBlur stdDeviation="2"/>
<feComposite in2="hardAlpha" operator="out"/>
<feColorMatrix type="matrix" values="0 0 0 0 0 0 0 0 0 0 0 0 0 0 0 0 0 0 0.25 0"/>
<feBlend mode="normal" in2="BackgroundImageFix" result="effect1_dropShadow_160_43"/>
<feBlend mode="normal" in="SourceGraphic" in2="effect1_dropShadow_160_43" result="shape"/>
</filter>
</defs>
</svg>
