<svg width="127" height="18" viewBox="0 0 127 18" fill="none" xmlns="http://www.w3.org/2000/svg">
<g clip-path="url(#clip0_44_83)">
<path d="M40.1413 8.63031C40.1413 7.58467 39.831 6.59131 39.0819 5.84816C38.1738 4.95189 36.5922 4.4216 34.1025 4.4216H28.8356L25.207 17.7536H29.721L30.7615 13.9444H31.8815L33.3874 17.7536H38.2495L36.3765 13.317C39.0402 12.4992 40.1375 10.7067 40.1375 8.63405L40.1413 8.63031ZM33.2512 10.7627H31.6128L32.328 8.15231H33.9285C34.5641 8.15231 35.0106 8.28675 35.2603 8.53322C35.4533 8.72368 35.5479 8.97015 35.5479 9.23903C35.5479 10.0755 34.7571 10.7627 33.2512 10.7627Z" fill="#2E2D2C"/>
<path d="M45.4877 14.9527C44.5039 14.9527 43.9629 14.4 43.9061 13.5635H50.6789C50.8719 12.9735 50.9892 12.305 50.9892 11.6216C50.9892 9.42948 49.8314 7.10666 46.358 7.10666C42.3434 7.10666 39.9521 10.266 39.9521 13.4291C39.9521 16.1515 41.9197 18 45.1245 18C46.9785 18 48.4428 17.354 49.6384 16.3046L47.6141 14.1162C46.8801 14.6689 46.2066 14.9527 45.4915 14.9527H45.4877ZM46.0855 10.0979C46.8007 10.0979 47.2244 10.632 47.2244 11.2033C47.2244 11.3565 47.2055 11.5096 47.1488 11.6589H44.1785C44.5834 10.4975 45.431 10.0979 46.0893 10.0979H46.0855Z" fill="#2E2D2C"/>
<path d="M60.403 7.10664C59.0901 7.10664 57.9512 7.81245 57.2588 8.64896L57.6069 7.35311H53.2254L50.4065 17.7498H54.788L56.1956 12.5701C56.5058 11.4461 56.9674 10.8747 57.8339 10.8747C58.4696 10.8747 58.7609 11.2369 58.7609 11.7896C58.7609 11.9988 58.7231 12.305 58.6436 12.5701L57.2361 17.7498H61.6176L63.1614 12.0361C63.3354 11.4087 63.4111 10.8187 63.4111 10.2846C63.4111 8.34274 62.3289 7.10291 60.3993 7.10291L60.403 7.10664Z" fill="#2E2D2C"/>
<path d="M71.4023 4.74649H67.0208L66.3056 7.35686H65.0721L64.1641 10.688H65.3975L64.5878 13.6979C64.4516 14.232 64.3759 14.7062 64.3759 15.1469C64.3759 17.0515 65.5716 17.9851 68.0424 17.9851C68.7764 17.9851 69.5104 17.8693 70.2634 17.6789L71.2093 14.1573C70.5926 14.3291 70.2823 14.3851 69.9342 14.3851C69.3175 14.3851 69.045 14.1573 69.045 13.7204C69.045 13.5112 69.0829 13.2647 69.1813 12.9212L69.7791 10.6917H72.212L73.1201 7.3606H70.6872L71.4023 4.75023V4.74649Z" fill="#2E2D2C"/>
<path d="M82.9426 9.92616L83.4042 8.23073H90.1997L91.2402 4.4216H79.9345L76.306 17.7536H80.8199L81.9967 13.3917H88.3079L89.2538 9.92616H82.9426Z" fill="#2E2D2C"/>
<path d="M92.4359 3.85022L88.6559 17.7535H93.0337L96.8174 3.85022H92.4359Z" fill="#2E2D2C"/>
<path d="M101.816 7.10666C98.1493 7.10666 95.5082 9.98218 95.5082 13.1639C95.5082 15.8677 97.4568 18 100.775 18C104.442 18 107.083 15.1245 107.083 11.9428C107.083 9.23902 105.134 7.10666 101.816 7.10666ZM101.044 14.4747C100.196 14.4747 99.6363 13.8473 99.6363 12.9697C99.6363 11.7336 100.446 10.6282 101.547 10.6282C102.395 10.6282 102.955 11.2556 102.955 12.1332C102.955 13.373 102.145 14.4747 101.044 14.4747Z" fill="#2E2D2C"/>
<path d="M119.236 4.17886V7.00957H121.461L118.082 11.5805L117.946 7.31579H114.453L112.024 11.5432L112.081 7.35314H107.991L108.339 17.8282H112.043L114.703 13.3731L114.9 17.8282H118.506L124.128 9.25397V11.8382H127V4.17886H119.236Z" fill="#2E2D2C"/>
<path d="M4.37015 1.53485L0.0453749 16.5846C-0.128675 17.1934 0.215642 17.6863 0.821034 17.6863H2.19452C1.97885 17.3017 1.92209 16.8348 2.05831 16.3606L6.37929 1.31078C6.39821 1.23983 6.42848 1.16887 6.45875 1.10165H4.92257C4.6842 1.10165 4.43825 1.29584 4.37015 1.53485Z" fill="#2D2E83"/>
<path d="M7.1777 1.53485L2.85293 16.5846C2.67888 17.1934 3.0232 17.6863 3.62859 17.6863H5.00207C4.7864 17.3017 4.72965 16.8348 4.86586 16.3606L9.18685 1.31078C9.20577 1.23983 9.23604 1.16887 9.26631 1.10165H7.73012C7.49175 1.10165 7.24581 1.29584 7.1777 1.53485Z" fill="#1D71B8"/>
<path d="M19.5996 0.197916C19.312 -0.0560261 18.8391 -0.0672294 18.4002 0.171775L12.823 3.00995C12.7322 3.05476 12.6527 2.99875 12.6792 2.90912L13.0916 1.54231C13.1635 1.29958 13.0273 1.10165 12.7889 1.10165H10.5376C10.2992 1.10165 10.0533 1.29584 9.9852 1.53485L5.66043 16.5846C5.48638 17.1933 5.83069 17.6863 6.43609 17.6863H10.8441C11.4457 17.6863 12.0776 17.1971 12.2516 16.5884L13.7424 11.3938C13.9165 10.7851 14.5483 10.2921 15.15 10.2921H17.0645C17.6661 10.2921 18.0142 10.7851 17.8402 11.3938L16.3494 16.5884C16.1753 17.1971 16.5197 17.69 17.125 17.69H21.5331C22.1347 17.69 22.7666 17.2008 22.9406 16.5921L25.8692 6.39335C25.9524 6.10207 25.9184 5.82198 25.7746 5.61659L19.5996 0.197916Z" fill="#009FE3"/>
</g>
<defs>
<clipPath id="clip0_44_83">
<rect width="127" height="18" fill="white"/>
</clipPath>
</defs>
</svg>
