<svg width="491" height="567" viewBox="0 0 491 567" fill="none" xmlns="http://www.w3.org/2000/svg">
<g clip-path="url(#clip0_103_200)">
<path d="M13.6375 417.374L245.498 551.249L477.362 417.374L245.498 283.5L13.6375 417.374Z" fill="#A6A6A6"/>
<path d="M477.363 149.626V417.374L245.498 283.5V15.7515L477.363 149.626Z" fill="#473BF0"/>
<path d="M13.6375 149.626L245.498 15.7515V283.5L13.6375 417.374V149.626Z" fill="#473BA1"/>
<path d="M491 425.248V409.5L245.498 551.249V567L491 425.248Z" fill="#8C8C8C"/>
<path d="M0 425.248L245.498 567V551.249L0 409.5V425.248Z" fill="#CCCCCC"/>
<path d="M0 141.748L245.498 0L491 141.748L477.362 149.626L245.498 15.7515L13.6375 149.626L0 141.748Z" fill="#473BC3"/>
<path d="M204.582 244.123L245.498 267.748V330.751L204.582 307.125V244.123Z" fill="#C49A6C"/>
<path d="M245.474 220.514L286.418 244.123L245.498 267.749L204.582 244.123L245.474 220.514Z" fill="#754C29"/>
<path d="M247.174 268.716L284.742 247.023L284.746 274.658L247.174 296.351V268.716Z" fill="#594A42"/>
<path d="M283.07 249.919V273.69L248.846 293.451V269.68L283.07 249.919ZM286.414 244.123L245.498 267.748V299.247L286.414 275.622V244.123Z" fill="#8B5E3C"/>
<path d="M247.17 300.216L284.742 278.522V306.157L247.174 327.851L247.17 300.216Z" fill="#594A42"/>
<path d="M283.07 281.418V305.189L248.846 324.951V301.18L283.07 281.418ZM286.414 275.622L245.498 299.248V330.747L286.414 307.121V275.622Z" fill="#8B5E3C"/>
<path d="M0 409.5V141.748L13.6375 149.626V417.374L0 409.5Z" fill="#473BF0"/>
<path d="M491 141.748L477.363 149.626V417.374L491 409.5V141.748Z" fill="#473BA1"/>
<path d="M177.307 228.376V338.624L81.8326 393.749V283.5L190.944 220.498" fill="#8B5E3C"/>
<path d="M81.7815 378.603V362.218L245.498 456.751V488.25L231.861 480.372V464.625L81.7815 378.603Z" fill="#C49A6C"/>
<path d="M259.139 480.373L245.498 488.25V456.751L340.972 401.623V433.126L327.335 441L327.307 425.236L259.139 464.625V480.373Z" fill="#8B5E3C"/>
<path d="M82.2261 330.751L245.498 425.248V456.751L81.7815 362.218L82.2261 330.751Z" fill="#39B54A"/>
<path d="M340.972 370.124L245.498 425.248V456.751L340.972 401.623V370.124Z" fill="#009444"/>
<path d="M177.303 275.622L340.972 370.124L245.498 425.248L82.2262 330.751L177.303 275.622Z" fill="#006838"/>
<path d="M340.972 370.124L245.498 425.248L122.749 354.376L218.223 299.251L340.972 370.124Z" fill="#00A651"/>
<path d="M68.1913 385.875V275.622L81.8327 283.5V393.749L68.1913 385.875Z" fill="#C49A6C"/>
<path d="M163.642 220.514L177.307 228.376L81.8327 283.5L68.1913 275.622L163.642 220.514Z" fill="#754C29"/>
</g>
<defs>
<clipPath id="clip0_103_200">
<rect width="491" height="567" fill="white"/>
</clipPath>
</defs>
</svg>
