<svg width="491" height="567" viewBox="0 0 491 567" fill="none" xmlns="http://www.w3.org/2000/svg">
<g clip-path="url(#clip0_189_438)">
<path d="M13.6377 417.374L245.498 551.249L477.363 417.374L245.498 283.5L13.6377 417.374Z" fill="#A6A6A6"/>
<path d="M477.363 149.626V417.374L245.498 283.5V15.7516L477.363 149.626Z" fill="#473BF0"/>
<path d="M13.6377 149.626L245.498 15.7516V283.5L13.6377 417.374V149.626Z" fill="#473BA1"/>
<path d="M491 425.248V409.5L245.498 551.249V567L491 425.248Z" fill="#8C8C8C"/>
<path d="M0 425.248L245.498 567V551.249L0 409.5V425.248Z" fill="#CCCCCC"/>
<path d="M0 141.748L245.498 0L491 141.748L477.362 149.626L245.498 15.7515L13.6375 149.626L0 141.748Z" fill="#473BC3"/>
<path d="M0 409.5V141.748L13.6375 149.626V417.374L0 409.5Z" fill="#473BF0"/>
<path d="M491 141.748L477.362 149.626V417.374L491 409.5V141.748Z" fill="#473BA1"/>
<path d="M300.056 456.751L368.251 417.374L231.861 338.625L163.666 378.001L300.056 456.751Z" fill="#662D6F"/>
<path d="M68.1953 417.374L231.861 511.876V417.374L81.8328 330.751V362.25L68.1953 354.376V417.374Z" fill="#8B5E3C"/>
<path d="M109.112 314.999L81.833 330.751L231.861 417.374L259.14 401.623L109.112 314.999Z" fill="#754C29"/>
<path d="M259.14 433.126L286.419 417.374L300.056 425.248L245.498 456.751L231.861 448.873L259.14 433.126Z" fill="#754C29"/>
<path d="M245.498 456.751L231.861 448.873V511.876L245.498 519.749V456.751Z" fill="#8B5E3C"/>
<path d="M231.861 417.374L259.14 401.623V433.126L231.861 448.873V417.374Z" fill="#603913"/>
<path d="M300.056 425.248V488.25L245.498 519.749V456.751L300.056 425.248Z" fill="#603913"/>
<path d="M68.1953 354.376L81.8328 346.498V362.25L68.1953 354.376Z" fill="#754C29"/>
<path d="M259.14 291.374V322.873L272.777 330.751V314.999L368.251 370.124V385.875L381.889 393.749V362.25L259.14 291.374Z" fill="#6D6E71"/>
<path d="M409.168 346.498L381.889 362.25V393.749L409.168 378.001V346.498Z" fill="#414042"/>
<path d="M286.419 275.626L259.14 291.374L381.889 362.25L409.168 346.498L286.419 275.626Z" fill="#58595B"/>
<path d="M272.777 314.999V330.751L286.418 322.873L272.777 314.999Z" fill="#414042"/>
<path d="M300.056 204.75V267.748L395.526 322.873V259.875L300.056 204.75Z" fill="#414042" stroke="#231F20" stroke-width="8.5" stroke-miterlimit="10"/>
<path d="M40.9165 196.876L81.8328 173.251V252.001L40.9165 275.626V196.876Z" fill="#FFDE17" stroke="#939598" stroke-width="8.5" stroke-miterlimit="10"/>
<path d="M109.112 188.999L150.028 165.373V244.123L109.112 267.749V188.999Z" fill="#2BB673" stroke="#939598" stroke-width="8.5" stroke-miterlimit="10"/>
<path d="M175.769 118.127L216.685 94.5013V173.251L175.769 196.876V118.127Z" fill="#EC008C" stroke="#939598" stroke-width="8.5" stroke-miterlimit="10"/>
<g style="mix-blend-mode:multiply" opacity="0.19">
<path d="M245.498 519.749H272.777L340.972 480.376L354.61 472.499L340.972 464.625H313.693L300.056 456.751V488.25L245.498 519.749Z" fill="black"/>
</g>
<g style="mix-blend-mode:multiply" opacity="0.19">
<path d="M381.889 393.749H409.168L422.805 385.875V354.376L409.168 346.498L409.179 377.494L381.889 393.749Z" fill="black"/>
</g>
<g style="mix-blend-mode:multiply" opacity="0.19">
<path d="M272.777 330.751H300.056L286.418 322.873L272.777 330.751Z" fill="black"/>
</g>
</g>
<defs>
<clipPath id="clip0_189_438">
<rect width="491" height="567" fill="white"/>
</clipPath>
</defs>
</svg>
